<svg width="229" height="64" viewBox="0 0 229 64" fill="none" xmlns="http://www.w3.org/2000/svg">
<rect y="1" width="68" height="63" rx="20" fill="white"/>
<path d="M96.892 45.212H86.884L85.228 50H79.936L88.972 24.836H94.84L103.876 50H98.548L96.892 45.212ZM95.524 41.18L91.888 30.668L88.252 41.18H95.524ZM109.81 27.68C108.922 27.68 108.178 27.404 107.578 26.852C107.002 26.276 106.714 25.568 106.714 24.728C106.714 23.888 107.002 23.192 107.578 22.64C108.178 22.064 108.922 21.776 109.81 21.776C110.698 21.776 111.43 22.064 112.006 22.64C112.606 23.192 112.906 23.888 112.906 24.728C112.906 25.568 112.606 26.276 112.006 26.852C111.43 27.404 110.698 27.68 109.81 27.68ZM112.294 30.056V50H107.254V30.056H112.294ZM122.313 33.152C122.961 32.096 123.801 31.268 124.833 30.668C125.889 30.068 127.089 29.768 128.433 29.768V35.06H127.101C125.517 35.06 124.317 35.432 123.501 36.176C122.709 36.92 122.313 38.216 122.313 40.064V50H117.273V30.056H122.313V33.152ZM140.504 50.252C138.752 50.252 137.168 49.952 135.752 49.352C134.36 48.752 133.256 47.888 132.44 46.76C131.624 45.632 131.204 44.3 131.18 42.764H136.58C136.652 43.796 137.012 44.612 137.66 45.212C138.332 45.812 139.244 46.112 140.396 46.112C141.572 46.112 142.496 45.836 143.168 45.284C143.84 44.708 144.176 43.964 144.176 43.052C144.176 42.308 143.948 41.696 143.492 41.216C143.036 40.736 142.46 40.364 141.764 40.1C141.092 39.812 140.156 39.5 138.956 39.164C137.324 38.684 135.992 38.216 134.96 37.76C133.952 37.28 133.076 36.572 132.332 35.636C131.612 34.676 131.252 33.404 131.252 31.82C131.252 30.332 131.624 29.036 132.368 27.932C133.112 26.828 134.156 25.988 135.5 25.412C136.844 24.812 138.38 24.512 140.108 24.512C142.7 24.512 144.8 25.148 146.408 26.42C148.04 27.668 148.94 29.42 149.108 31.676H143.564C143.516 30.812 143.144 30.104 142.448 29.552C141.776 28.976 140.876 28.688 139.748 28.688C138.764 28.688 137.972 28.94 137.372 29.444C136.796 29.948 136.508 30.68 136.508 31.64C136.508 32.312 136.724 32.876 137.156 33.332C137.612 33.764 138.164 34.124 138.812 34.412C139.484 34.676 140.42 34.988 141.62 35.348C143.252 35.828 144.584 36.308 145.616 36.788C146.648 37.268 147.536 37.988 148.28 38.948C149.024 39.908 149.396 41.168 149.396 42.728C149.396 44.072 149.048 45.32 148.352 46.472C147.656 47.624 146.636 48.548 145.292 49.244C143.948 49.916 142.352 50.252 140.504 50.252ZM159.633 34.196V43.844C159.633 44.516 159.789 45.008 160.101 45.32C160.437 45.608 160.989 45.752 161.757 45.752H164.097V50H160.929C156.681 50 154.557 47.936 154.557 43.808V34.196H152.181V30.056H154.557V25.124H159.633V30.056H164.097V34.196H159.633ZM166.426 39.956C166.426 37.94 166.822 36.152 167.614 34.592C168.43 33.032 169.522 31.832 170.89 30.992C172.282 30.152 173.83 29.732 175.534 29.732C177.022 29.732 178.318 30.032 179.422 30.632C180.55 31.232 181.45 31.988 182.122 32.9V30.056H187.198V50H182.122V47.084C181.474 48.02 180.574 48.8 179.422 49.424C178.294 50.024 176.986 50.324 175.498 50.324C173.818 50.324 172.282 49.892 170.89 49.028C169.522 48.164 168.43 46.952 167.614 45.392C166.822 43.808 166.426 41.996 166.426 39.956ZM182.122 40.028C182.122 38.804 181.882 37.76 181.402 36.896C180.922 36.008 180.274 35.336 179.458 34.88C178.642 34.4 177.766 34.16 176.83 34.16C175.894 34.16 175.03 34.388 174.238 34.844C173.446 35.3 172.798 35.972 172.294 36.86C171.814 37.724 171.574 38.756 171.574 39.956C171.574 41.156 171.814 42.212 172.294 43.124C172.798 44.012 173.446 44.696 174.238 45.176C175.054 45.656 175.918 45.896 176.83 45.896C177.766 45.896 178.642 45.668 179.458 45.212C180.274 44.732 180.922 44.06 181.402 43.196C181.882 42.308 182.122 41.252 182.122 40.028ZM197.989 34.196V43.844C197.989 44.516 198.145 45.008 198.457 45.32C198.793 45.608 199.345 45.752 200.113 45.752H202.453V50H199.285C195.037 50 192.913 47.936 192.913 43.808V34.196H190.537V30.056H192.913V25.124H197.989V30.056H202.453V34.196H197.989ZM213.71 50.324C212.078 50.324 210.614 50.036 209.318 49.46C208.022 48.86 206.99 48.056 206.222 47.048C205.478 46.04 205.07 44.924 204.998 43.7H210.074C210.17 44.468 210.542 45.104 211.19 45.608C211.862 46.112 212.69 46.364 213.674 46.364C214.634 46.364 215.378 46.172 215.906 45.788C216.458 45.404 216.734 44.912 216.734 44.312C216.734 43.664 216.398 43.184 215.726 42.872C215.078 42.536 214.034 42.176 212.594 41.792C211.106 41.432 209.882 41.06 208.922 40.676C207.986 40.292 207.17 39.704 206.474 38.912C205.802 38.12 205.466 37.052 205.466 35.708C205.466 34.604 205.778 33.596 206.402 32.684C207.05 31.772 207.962 31.052 209.138 30.524C210.338 29.996 211.742 29.732 213.35 29.732C215.726 29.732 217.622 30.332 219.038 31.532C220.454 32.708 221.234 34.304 221.378 36.32H216.554C216.482 35.528 216.146 34.904 215.546 34.448C214.97 33.968 214.19 33.728 213.206 33.728C212.294 33.728 211.586 33.896 211.082 34.232C210.602 34.568 210.362 35.036 210.362 35.636C210.362 36.308 210.698 36.824 211.37 37.184C212.042 37.52 213.086 37.868 214.502 38.228C215.942 38.588 217.13 38.96 218.066 39.344C219.002 39.728 219.806 40.328 220.478 41.144C221.174 41.936 221.534 42.992 221.558 44.312C221.558 45.464 221.234 46.496 220.586 47.408C219.962 48.32 219.05 49.04 217.85 49.568C216.674 50.072 215.294 50.324 213.71 50.324Z" fill="white"/>
<path d="M49.5 51.6667V25.8333M34 51.6667V10.3333M18.5 51.6667V36.1667" stroke="#FF5A5F" stroke-width="4" stroke-linecap="round" stroke-linejoin="round"/>
</svg>
