<svg width="46" height="44" viewBox="0 0 46 44" fill="none" xmlns="http://www.w3.org/2000/svg">
<path d="M36.9015 38.5036L25.0403 26.9525C24.0989 27.6859 23.0163 28.2665 21.7926 28.6944C20.5688 29.1222 19.2666 29.3361 17.8859 29.3361C14.4656 29.3361 11.5709 28.1825 9.20184 25.8753C6.83274 23.5682 5.64819 20.7492 5.64819 17.4183C5.64819 14.0874 6.83274 11.2684 9.20184 8.96126C11.5709 6.6541 14.4656 5.50051 17.8859 5.50051C21.3062 5.50051 24.2009 6.6541 26.57 8.96126C28.9391 11.2684 30.1236 14.0874 30.1236 17.4183C30.1236 18.7629 29.904 20.031 29.4647 21.2228C29.0254 22.4146 28.4292 23.4689 27.6761 24.3856L39.5373 35.9367L36.9015 38.5036ZM17.8859 25.6691C20.2393 25.6691 22.2397 24.8669 23.8871 23.2626C25.5345 21.6583 26.3582 19.7102 26.3582 17.4183C26.3582 15.1264 25.5345 13.1783 23.8871 11.574C22.2397 9.96968 20.2393 9.16753 17.8859 9.16753C15.5325 9.16753 13.5321 9.96968 11.8847 11.574C10.2373 13.1783 9.41365 15.1264 9.41365 17.4183C9.41365 19.7102 10.2373 21.6583 11.8847 23.2626C13.5321 24.8669 15.5325 25.6691 17.8859 25.6691Z" fill="#484848"/>
</svg>
